<svg width="25" height="24" viewBox="0 0 25 24" fill="none" xmlns="http://www.w3.org/2000/svg">
<path fill-rule="evenodd" clip-rule="evenodd" d="M11.578 2.25C10.661 2.25 9.879 2.913 9.728 3.817L9.55 4.889C9.53 5.009 9.435 5.149 9.253 5.237C8.91034 5.40171 8.58073 5.59226 8.267 5.807C8.101 5.922 7.933 5.933 7.817 5.89L6.8 5.508C6.38424 5.35224 5.92669 5.34906 5.50881 5.49904C5.09093 5.64901 4.73982 5.94241 4.518 6.327L3.596 7.924C3.37408 8.30836 3.29571 8.75897 3.37481 9.19569C3.45392 9.6324 3.68537 10.0269 4.028 10.309L4.868 11.001C4.963 11.079 5.038 11.23 5.022 11.431C4.9935 11.8101 4.9935 12.1909 5.022 12.57C5.037 12.77 4.963 12.922 4.869 13L4.028 13.692C3.68537 13.9741 3.45392 14.3686 3.37481 14.8053C3.29571 15.242 3.37408 15.6926 3.596 16.077L4.518 17.674C4.73998 18.0584 5.09115 18.3516 5.50902 18.5014C5.92689 18.6512 6.38435 18.6478 6.8 18.492L7.819 18.11C7.934 18.067 8.102 18.079 8.269 18.192C8.581 18.406 8.91 18.597 9.254 18.762C9.436 18.85 9.531 18.99 9.551 19.112L9.729 20.183C9.88 21.087 10.662 21.75 11.579 21.75H13.423C14.339 21.75 15.122 21.087 15.273 20.183L15.451 19.111C15.471 18.991 15.565 18.851 15.748 18.762C16.092 18.597 16.421 18.406 16.733 18.192C16.9 18.078 17.068 18.067 17.183 18.11L18.203 18.492C18.6185 18.6472 19.0756 18.6501 19.493 18.5002C19.9105 18.3502 20.2612 18.0571 20.483 17.673L21.406 16.076C21.6279 15.6916 21.7063 15.241 21.6272 14.8043C21.5481 14.3676 21.3166 13.9731 20.974 13.691L20.134 12.999C20.039 12.921 19.964 12.77 19.98 12.569C20.0084 12.1899 20.0084 11.8091 19.98 11.43C19.964 11.23 20.039 11.078 20.133 11L20.973 10.308C21.681 9.726 21.864 8.718 21.406 7.923L20.484 6.326C20.262 5.94159 19.9108 5.6484 19.493 5.49861C19.0751 5.34883 18.6176 5.35215 18.202 5.508L17.182 5.89C17.068 5.933 16.9 5.921 16.733 5.807C16.4196 5.5923 16.0903 5.40175 15.748 5.237C15.565 5.15 15.471 5.01 15.451 4.889L15.272 3.817C15.1991 3.37906 14.9731 2.98122 14.6343 2.69427C14.2956 2.40732 13.866 2.24989 13.422 2.25H11.579H11.578ZM12.5 15.75C13.4946 15.75 14.4484 15.3549 15.1516 14.6517C15.8549 13.9484 16.25 12.9946 16.25 12C16.25 11.0054 15.8549 10.0516 15.1516 9.34835C14.4484 8.64509 13.4946 8.25 12.5 8.25C11.5054 8.25 10.5516 8.64509 9.84835 9.34835C9.14508 10.0516 8.75 11.0054 8.75 12C8.75 12.9946 9.14508 13.9484 9.84835 14.6517C10.5516 15.3549 11.5054 15.75 12.5 15.75Z" fill="#1849A9"/>
</svg>
