<svg width="25" height="24" viewBox="0 0 25 24" fill="none" xmlns="http://www.w3.org/2000/svg">
<path d="M11.75 4.53301C10.1831 3.52938 8.36076 2.99725 6.5 3.00001C5.39299 2.99888 4.2939 3.18657 3.25 3.55501C3.10379 3.6067 2.9772 3.70245 2.88766 3.82906C2.79812 3.95568 2.75002 4.10693 2.75 4.26201V18.512C2.75002 18.632 2.77882 18.7502 2.83398 18.8567C2.88915 18.9633 2.96907 19.055 3.06703 19.1243C3.165 19.1936 3.27815 19.2383 3.39699 19.2548C3.51583 19.2713 3.63689 19.259 3.75 19.219C4.63333 18.9075 5.56333 18.7488 6.5 18.75C8.495 18.75 10.323 19.457 11.75 20.636V4.53301ZM13.25 20.636C14.7264 19.4141 16.5836 18.747 18.5 18.75C19.466 18.75 20.39 18.916 21.25 19.22C21.3632 19.26 21.4843 19.2723 21.6033 19.2558C21.7222 19.2392 21.8354 19.1944 21.9334 19.125C22.0314 19.0556 22.1113 18.9638 22.1664 18.8571C22.2215 18.7504 22.2501 18.6321 22.25 18.512V4.26201C22.25 4.10693 22.2019 3.95568 22.1123 3.82906C22.0228 3.70245 21.8962 3.6067 21.75 3.55501C20.7061 3.18657 19.607 2.99888 18.5 3.00001C16.6392 2.99725 14.8169 3.52938 13.25 4.53301V20.636Z" fill="#1849A9"/>
</svg>
