<svg width="19" height="18" viewBox="0 0 19 18" fill="none" xmlns="http://www.w3.org/2000/svg">
<path d="M13.1465 3.36519L14.4118 2.09919C14.6755 1.83543 15.0332 1.68726 15.4063 1.68726C15.7793 1.68726 16.137 1.83543 16.4008 2.09919C16.6645 2.36295 16.8127 2.72068 16.8127 3.09369C16.8127 3.4667 16.6645 3.82443 16.4008 4.08819L8.4365 12.0524C8.03999 12.4487 7.55103 12.74 7.01375 12.8999L5 13.4999L5.6 11.4862C5.75996 10.9489 6.05123 10.4599 6.4475 10.0634L13.1465 3.36519ZM13.1465 3.36519L15.125 5.34369M14 10.4999V14.0624C14 14.51 13.8222 14.9392 13.5057 15.2557C13.1893 15.5722 12.7601 15.7499 12.3125 15.7499H4.4375C3.98995 15.7499 3.56072 15.5722 3.24426 15.2557C2.92779 14.9392 2.75 14.51 2.75 14.0624V6.18744C2.75 5.73989 2.92779 5.31067 3.24426 4.9942C3.56072 4.67773 3.98995 4.49994 4.4375 4.49994H8" stroke="currentColor" stroke-width="1.5" stroke-linecap="round" stroke-linejoin="round"/>
</svg>
