<svg width="25" height="24" viewBox="0 0 25 24" fill="none" xmlns="http://www.w3.org/2000/svg">
<path d="M10.094 3.94C10.184 3.398 10.654 3 11.204 3H13.797C14.347 3 14.817 3.398 14.907 3.94L15.12 5.221C15.183 5.595 15.433 5.907 15.765 6.091C15.839 6.131 15.912 6.174 15.985 6.218C16.31 6.414 16.705 6.475 17.06 6.342L18.277 5.886C18.5264 5.79221 18.801 5.78998 19.0519 5.87971C19.3028 5.96945 19.5137 6.14531 19.647 6.376L20.943 8.623C21.0761 8.8537 21.123 9.12413 21.0753 9.38617C21.0277 9.6482 20.8887 9.88485 20.683 10.054L19.68 10.881C19.387 11.122 19.242 11.494 19.25 11.873C19.2514 11.958 19.2514 12.043 19.25 12.128C19.242 12.506 19.387 12.878 19.68 13.119L20.684 13.946C21.108 14.296 21.218 14.901 20.944 15.376L19.646 17.623C19.5128 17.8536 19.3022 18.0296 19.0515 18.1195C18.8008 18.2094 18.5264 18.2074 18.277 18.114L17.06 17.658C16.705 17.525 16.31 17.586 15.984 17.782C15.9115 17.8261 15.8382 17.8688 15.764 17.91C15.433 18.093 15.183 18.405 15.12 18.779L14.907 20.06C14.817 20.603 14.347 21 13.797 21H11.203C10.653 21 10.184 20.602 10.093 20.06L9.88 18.779C9.818 18.405 9.568 18.093 9.236 17.909C9.16185 17.8681 9.0885 17.8258 9.016 17.782C8.691 17.586 8.296 17.525 7.94 17.658L6.723 18.114C6.47373 18.2075 6.19937 18.2096 5.9487 18.1199C5.69803 18.0302 5.48731 17.8545 5.354 17.624L4.057 15.377C3.92394 15.1463 3.87705 14.8759 3.92466 14.6138C3.97227 14.3518 4.11129 14.1152 4.317 13.946L5.321 13.119C5.613 12.879 5.758 12.506 5.751 12.128C5.74944 12.043 5.74944 11.958 5.751 11.873C5.758 11.493 5.613 11.122 5.321 10.881L4.317 10.054C4.11154 9.88489 3.97267 9.64843 3.92507 9.38662C3.87747 9.12481 3.92421 8.8546 4.057 8.624L5.354 6.377C5.48719 6.14614 5.69801 5.97006 5.94891 5.88014C6.19981 5.79021 6.47449 5.79229 6.724 5.886L7.94 6.342C8.296 6.475 8.691 6.414 9.016 6.218C9.088 6.174 9.162 6.132 9.236 6.09C9.568 5.907 9.818 5.595 9.88 5.221L10.094 3.94Z" stroke="currentColor" stroke-width="1.5" stroke-linecap="round" stroke-linejoin="round"/>
<path d="M15.5 12C15.5 12.7956 15.1839 13.5587 14.6213 14.1213C14.0587 14.6839 13.2956 15 12.5 15C11.7044 15 10.9413 14.6839 10.3787 14.1213C9.81607 13.5587 9.5 12.7956 9.5 12C9.5 11.2044 9.81607 10.4413 10.3787 9.87868C10.9413 9.31607 11.7044 9 12.5 9C13.2956 9 14.0587 9.31607 14.6213 9.87868C15.1839 10.4413 15.5 11.2044 15.5 12Z" stroke="currentColor" stroke-width="1.5" stroke-linecap="round" stroke-linejoin="round"/>
</svg>
