<svg width="24" height="24" viewBox="0 0 24 24" fill="none" xmlns="http://www.w3.org/2000/svg">
<path d="M12 22C17.5357 22 22 17.5357 22 12C22 6.46429 17.5357 2 12 2C6.46429 2 2 6.46429 2 12C2 17.5357 6.46429 22 12 22Z" fill="#0098EA"/>
<path d="M15.4286 7.57153H8.5715C7.3215 7.57153 6.53578 8.92868 7.14293 10.0358L11.3572 17.3572C11.6429 17.8215 12.3215 17.8215 12.6072 17.3572L16.8215 10.0358C17.4644 8.92868 16.6786 7.57153 15.4286 7.57153ZM11.3929 15.143L10.4644 13.3572L8.25007 9.39296C8.10721 9.14296 8.28579 8.82153 8.60721 8.82153H11.3929V15.143ZM15.7501 9.39296L13.5358 13.3572L12.6072 15.143V8.82153H15.3929C15.7144 8.82153 15.8929 9.14296 15.7501 9.39296Z" fill="white"/>
</svg>
