<svg width="8" height="8" viewBox="0 0 8 8" fill="none" xmlns="http://www.w3.org/2000/svg">
<path fill-rule="evenodd" clip-rule="evenodd" d="M2.28 1.21997C2.21134 1.14628 2.12854 1.08718 2.03654 1.04619C1.94454 1.0052 1.84523 0.983156 1.74452 0.981379C1.64382 0.979602 1.54379 0.998127 1.4504 1.03585C1.35702 1.07357 1.27218 1.12971 1.20096 1.20093C1.12974 1.27215 1.0736 1.35698 1.03588 1.45037C0.998158 1.54376 0.979633 1.64379 0.981409 1.74449C0.983186 1.8452 1.00523 1.94451 1.04622 2.03651C1.08721 2.12851 1.14631 2.21131 1.22 2.27997L2.94 3.99997L1.22 5.71997C1.14631 5.78863 1.08721 5.87143 1.04622 5.96343C1.00523 6.05543 0.983186 6.15475 0.981409 6.25545C0.979633 6.35615 0.998158 6.45618 1.03588 6.54957C1.0736 6.64296 1.12974 6.72779 1.20096 6.79901C1.27218 6.87023 1.35702 6.92637 1.4504 6.96409C1.54379 7.00181 1.64382 7.02034 1.74452 7.01856C1.84523 7.01679 1.94454 6.99474 2.03654 6.95375C2.12854 6.91276 2.21134 6.85366 2.28 6.77997L4 5.05997L5.72 6.77997C5.78866 6.85366 5.87146 6.91276 5.96346 6.95375C6.05546 6.99474 6.15478 7.01679 6.25548 7.01856C6.35618 7.02034 6.45621 7.00181 6.5496 6.96409C6.64299 6.92637 6.72782 6.87023 6.79904 6.79901C6.87026 6.72779 6.9264 6.64296 6.96412 6.54957C7.00185 6.45618 7.02037 6.35615 7.01859 6.25545C7.01682 6.15475 6.99477 6.05543 6.95378 5.96343C6.91279 5.87143 6.85369 5.78863 6.78 5.71997L5.06 3.99997L6.78 2.27997C6.85369 2.21131 6.91279 2.12851 6.95378 2.03651C6.99477 1.94451 7.01682 1.8452 7.01859 1.74449C7.02037 1.64379 7.00185 1.54376 6.96412 1.45037C6.9264 1.35698 6.87026 1.27215 6.79904 1.20093C6.72782 1.12971 6.64299 1.07357 6.5496 1.03585C6.45621 0.998127 6.35618 0.979602 6.25548 0.981379C6.15478 0.983156 6.05546 1.0052 5.96346 1.04619C5.87146 1.08718 5.78866 1.14628 5.72 1.21997L4 2.93997L2.28 1.21997Z" fill="currentColor"/>
</svg>


